<svg xmlns="http://www.w3.org/2000/svg" width="20" height="20" viewBox="0 0 20 20" fill="none">
  <path d="M2.1875 10C2.1875 9.58579 2.52329 9.25 2.9375 9.25H17.0625C17.4767 9.25 17.8125 9.58579 17.8125 10C17.8125 10.4142 17.4767 10.75 17.0625 10.75H2.9375C2.52329 10.75 2.1875 10.4142 2.1875 10Z"/>
  <path d="M10 2.1875C10.4142 2.1875 10.75 2.52329 10.75 2.9375L10.75 17.0625C10.75 17.4767 10.4142 17.8125 10 17.8125C9.58579 17.8125 9.25 17.4767 9.25 17.0625L9.25 2.9375C9.25 2.52329 9.58579 2.1875 10 2.1875Z"/>
</svg>