<svg width="136" height="40" viewBox="0 0 136 40" fill="none" xmlns="http://www.w3.org/2000/svg">
<path d="M16.75 19.5C16.4739 19.5 16.25 19.7239 16.25 20C16.25 20.2761 16.4739 20.5 16.75 20.5V19.5ZM119.25 20L114.25 17.1132V22.8868L119.25 20ZM17.2525 20.5C17.5286 20.5 17.7525 20.2761 17.7525 20C17.7525 19.7239 17.5286 19.5 17.2525 19.5V20.5ZM22.277 19.5C22.0008 19.5 21.777 19.7239 21.777 20C21.777 20.2761 22.0008 20.5 22.277 20.5V19.5ZM23.2819 20.5C23.558 20.5 23.7819 20.2761 23.7819 20C23.7819 19.7239 23.558 19.5 23.2819 19.5V20.5ZM28.3064 19.5C28.0302 19.5 27.8064 19.7239 27.8064 20C27.8064 20.2761 28.0302 20.5 28.3064 20.5V19.5ZM29.3113 20.5C29.5874 20.5 29.8113 20.2761 29.8113 20C29.8113 19.7239 29.5874 19.5 29.3113 19.5V20.5ZM34.3358 19.5C34.0596 19.5 33.8358 19.7239 33.8358 20C33.8358 20.2761 34.0596 20.5 34.3358 20.5V19.5ZM35.3407 20.5C35.6168 20.5 35.8407 20.2761 35.8407 20C35.8407 19.7239 35.6168 19.5 35.3407 19.5V20.5ZM40.3652 19.5C40.0891 19.5 39.8652 19.7239 39.8652 20C39.8652 20.2761 40.0891 20.5 40.3652 20.5V19.5ZM41.3701 20.5C41.6462 20.5 41.8701 20.2761 41.8701 20C41.8701 19.7239 41.6462 19.5 41.3701 19.5V20.5ZM46.3946 19.5C46.1185 19.5 45.8946 19.7239 45.8946 20C45.8946 20.2761 46.1185 20.5 46.3946 20.5V19.5ZM47.3995 20.5C47.6757 20.5 47.8995 20.2761 47.8995 20C47.8995 19.7239 47.6757 19.5 47.3995 19.5V20.5ZM52.424 19.5C52.1479 19.5 51.924 19.7239 51.924 20C51.924 20.2761 52.1479 20.5 52.424 20.5V19.5ZM53.4289 20.5C53.7051 20.5 53.9289 20.2761 53.9289 20C53.9289 19.7239 53.7051 19.5 53.4289 19.5V20.5ZM58.4534 19.5C58.1773 19.5 57.9534 19.7239 57.9534 20C57.9534 20.2761 58.1773 20.5 58.4534 20.5V19.5ZM59.4583 20.5C59.7345 20.5 59.9583 20.2761 59.9583 20C59.9583 19.7239 59.7345 19.5 59.4583 19.5V20.5ZM64.4828 19.5C64.2067 19.5 63.9828 19.7239 63.9828 20C63.9828 20.2761 64.2067 20.5 64.4828 20.5V19.5ZM65.4877 20.5C65.7639 20.5 65.9877 20.2761 65.9877 20C65.9877 19.7239 65.7639 19.5 65.4877 19.5V20.5ZM70.5123 19.5C70.2361 19.5 70.0123 19.7239 70.0123 20C70.0123 20.2761 70.2361 20.5 70.5123 20.5V19.5ZM71.5172 20.5C71.7933 20.5 72.0172 20.2761 72.0172 20C72.0172 19.7239 71.7933 19.5 71.5172 19.5V20.5ZM76.5417 19.5C76.2655 19.5 76.0417 19.7239 76.0417 20C76.0417 20.2761 76.2655 20.5 76.5417 20.5V19.5ZM77.5466 20.5C77.8227 20.5 78.0466 20.2761 78.0466 20C78.0466 19.7239 77.8227 19.5 77.5466 19.5V20.5ZM82.5711 19.5C82.2949 19.5 82.0711 19.7239 82.0711 20C82.0711 20.2761 82.2949 20.5 82.5711 20.5V19.5ZM83.576 20.5C83.8521 20.5 84.076 20.2761 84.076 20C84.076 19.7239 83.8521 19.5 83.576 19.5V20.5ZM88.6005 19.5C88.3244 19.5 88.1005 19.7239 88.1005 20C88.1005 20.2761 88.3244 20.5 88.6005 20.5V19.5ZM89.6054 20.5C89.8815 20.5 90.1054 20.2761 90.1054 20C90.1054 19.7239 89.8815 19.5 89.6054 19.5V20.5ZM94.6299 19.5C94.3538 19.5 94.1299 19.7239 94.1299 20C94.1299 20.2761 94.3538 20.5 94.6299 20.5V19.5ZM95.6348 20.5C95.911 20.5 96.1348 20.2761 96.1348 20C96.1348 19.7239 95.911 19.5 95.6348 19.5V20.5ZM100.659 19.5C100.383 19.5 100.159 19.7239 100.159 20C100.159 20.2761 100.383 20.5 100.659 20.5V19.5ZM101.664 20.5C101.94 20.5 102.164 20.2761 102.164 20C102.164 19.7239 101.94 19.5 101.664 19.5V20.5ZM106.689 19.5C106.413 19.5 106.189 19.7239 106.189 20C106.189 20.2761 106.413 20.5 106.689 20.5V19.5ZM107.694 20.5C107.97 20.5 108.194 20.2761 108.194 20C108.194 19.7239 107.97 19.5 107.694 19.5V20.5ZM112.718 19.5C112.442 19.5 112.218 19.7239 112.218 20C112.218 20.2761 112.442 20.5 112.718 20.5V19.5ZM113.723 20.5C113.999 20.5 114.223 20.2761 114.223 20C114.223 19.7239 113.999 19.5 113.723 19.5V20.5ZM118.748 19.5C118.471 19.5 118.248 19.7239 118.248 20C118.248 20.2761 118.471 20.5 118.748 20.5V19.5ZM16.75 20.5H17.2525V19.5H16.75V20.5ZM22.277 20.5H23.2819V19.5H22.277V20.5ZM28.3064 20.5H29.3113V19.5H28.3064V20.5ZM34.3358 20.5H35.3407V19.5H34.3358V20.5ZM40.3652 20.5H41.3701V19.5H40.3652V20.5ZM46.3946 20.5H47.3995V19.5H46.3946V20.5ZM52.424 20.5H53.4289V19.5H52.424V20.5ZM58.4534 20.5H59.4583V19.5H58.4534V20.5ZM64.4828 20.5H65.4877V19.5H64.4828V20.5ZM70.5123 20.5H71.5172V19.5H70.5123V20.5ZM76.5417 20.5H77.5466V19.5H76.5417V20.5ZM82.5711 20.5H83.576V19.5H82.5711V20.5ZM88.6005 20.5H89.6054V19.5H88.6005V20.5ZM94.6299 20.5H95.6348V19.5H94.6299V20.5ZM100.659 20.5H101.664V19.5H100.659V20.5ZM106.689 20.5H107.694V19.5H106.689V20.5ZM112.718 20.5H113.723V19.5H112.718V20.5Z" fill="url(#paint0_linear_402_49191)"/>
<defs>
<linearGradient id="paint0_linear_402_49191" x1="82.5" y1="20.9999" x2="11.0344" y2="20.9999" gradientUnits="userSpaceOnUse">
<stop stop-color="#FFFDF1"/>
<stop offset="1" stop-color="#FFFDF1" stop-opacity="0"/>
</linearGradient>
</defs>
</svg>
