<svg xmlns="http://www.w3.org/2000/svg" width="20" height="21" viewBox="0 0 20 21" fill="none">
    <path d="M15.7363 5.25455C14.6909 4.79621 13.5733 4.46311 12.4048 4.27344C12.2613 4.51659 12.0936 4.84363 11.978 5.10379C10.7358 4.92873 9.5051 4.92873 8.28578 5.10379C8.17021 4.84363 7.99874 4.51659 7.85395 4.27344C6.68416 4.46311 5.56519 4.79743 4.51988 5.25697C2.41148 8.2428 1.83993 11.1545 2.1257 14.0248C3.52411 15.0035 4.87932 15.598 6.21167 15.987C6.54064 15.5627 6.83403 15.1117 7.08678 14.6363C6.6054 14.4649 6.14436 14.2534 5.70872 14.0078C5.82429 13.9276 5.93735 13.8437 6.04656 13.7573C8.70364 14.922 11.5906 14.922 14.2159 13.7573C14.3265 13.8437 14.4395 13.9276 14.5538 14.0078C14.1168 14.2546 13.6546 14.4661 13.1732 14.6375C13.4259 15.1117 13.7181 15.5639 14.0483 15.9882C15.382 15.5992 16.7384 15.0047 18.1368 14.0248C18.4722 10.6974 17.564 7.81244 15.7363 5.25455ZM7.44877 12.2596C6.65114 12.2596 5.99702 11.5617 5.99702 10.7119C5.99702 9.86215 6.63717 9.16311 7.44877 9.16311C8.26039 9.16311 8.91449 9.86093 8.90052 10.7119C8.90178 11.5617 8.26039 12.2596 7.44877 12.2596ZM12.8138 12.2596C12.0161 12.2596 11.362 11.5617 11.362 10.7119C11.362 9.86215 12.0021 9.16311 12.8138 9.16311C13.6254 9.16311 14.2795 9.86093 14.2655 10.7119C14.2655 11.5617 13.6254 12.2596 12.8138 12.2596Z" fill="currentColor"/>
</svg>