<svg xmlns="http://www.w3.org/2000/svg" width="41" height="40" viewBox="0 0 41 40" fill="none">
    <g clip-path="url(#clip0_402_49183)">
        <path d="M40.75 20C40.75 31.0457 31.7957 40 20.75 40C9.7043 40 0.75 31.0457 0.75 20C0.75 8.9543 9.7043 0 20.75 0C31.7957 0 40.75 8.9543 40.75 20Z" fill="#2B2B23"/>
        <path d="M25.75 10.0003V11.6669H29.0834V13.3335H30.75V16.6669H27.4167V18.3336H22.4166V20.0002H17.4166V21.6668H22.4166V23.3334H27.4167V25H30.75V28.3334H29.0834V30H25.75V31.6667H17.4166V30H14.0832V28.3334H12.4166V25H10.75V16.6666H12.4166V13.3332H14.0832V11.6666H17.4166V10L25.75 10.0003Z" fill="#FFF000"/>
    </g>
    <defs>
        <clipPath id="clip0_402_49183">
            <rect width="40" height="40" fill="white" transform="translate(0.75)"/>
        </clipPath>
    </defs>
</svg>