<svg xmlns="http://www.w3.org/2000/svg" width="21" height="20" viewBox="0 0 21 20" fill="none">
    <path d="M11.2227 17.9167C9.57267 17.9167 8.231 16.5751 8.231 14.9251V14.7584H6.02267C5.67267 14.7584 5.46434 14.7584 5.24767 14.6834C4.831 14.5417 4.49767 14.2084 4.356 13.7917C4.281 13.5751 4.281 13.3584 4.281 13.0167C4.281 12.8334 4.281 12.7417 4.29767 12.6501C4.331 12.4334 4.42267 12.2251 4.54767 12.0501C4.59767 11.9834 4.66434 11.9084 4.78934 11.7751L5.09767 11.4667L5.07267 8.59173C5.06434 5.2084 7.82267 2.44173 11.2227 2.44173C14.6227 2.44173 17.381 5.20006 17.381 8.60006V11.5417L17.6643 11.7834C17.7893 11.9084 17.856 11.9751 17.906 12.0501C18.031 12.2251 18.1227 12.4334 18.156 12.6501C18.1727 12.7334 18.1727 12.8251 18.1727 13.0167C18.1727 13.3667 18.1727 13.5751 18.0977 13.8001C17.956 14.2167 17.6227 14.5501 17.206 14.6917C16.9893 14.7667 16.7727 14.7667 16.431 14.7667H14.2227V14.9334C14.2227 16.5834 12.881 17.9251 11.231 17.9251L11.2227 17.9167ZM9.481 14.7584V14.9251C9.481 15.8917 10.2643 16.6667 11.2227 16.6667C12.181 16.6667 12.9643 15.8834 12.9643 14.9251V14.7584H9.47267H9.481ZM13.5977 13.5084H16.431C16.5977 13.5084 16.7727 13.5084 16.8143 13.5001C16.856 13.4834 16.8893 13.4501 16.906 13.4001C16.9143 13.3584 16.9143 13.1917 16.9143 13.0167C16.9143 12.9417 16.9143 12.8917 16.9143 12.8501C16.8643 12.7501 16.831 12.7251 16.7727 12.6667L16.4643 12.3584C16.2477 12.1417 16.131 11.8501 16.131 11.5417V8.60006C16.131 5.89173 13.931 3.69173 11.2227 3.69173C8.51434 3.69173 6.31434 5.89173 6.31434 8.60006V11.5417C6.31434 11.8501 6.19767 12.1417 5.97267 12.3584L5.66434 12.6667C5.606 12.7251 5.57267 12.7501 5.54767 12.7834C5.51434 12.8917 5.51434 12.9334 5.51434 13.0167C5.51434 13.1834 5.51434 13.3584 5.52267 13.4001C5.53934 13.4417 5.57267 13.4834 5.62267 13.5001C5.656 13.5001 5.831 13.5001 5.99767 13.5001H13.5727L13.5977 13.5084ZM18.4727 6.0834C18.231 6.0834 17.9977 5.94173 17.8977 5.7084C17.3977 4.5584 16.606 3.55006 15.606 2.80006C15.331 2.59173 15.2727 2.20006 15.481 1.92506C15.6893 1.65006 16.081 1.59173 16.356 1.80006C17.531 2.6834 18.456 3.86673 19.0477 5.2084C19.1893 5.52506 19.0477 5.89173 18.7227 6.0334C18.6393 6.06673 18.556 6.0834 18.4727 6.0834ZM3.97267 6.07506C3.88934 6.07506 3.806 6.0584 3.72267 6.02506C3.406 5.8834 3.26434 5.51673 3.39767 5.20006C3.98934 3.8584 4.91434 2.67506 6.08934 1.79173C6.36434 1.5834 6.756 1.64173 6.96434 1.91673C7.17267 2.19173 7.11434 2.5834 6.83934 2.79173C5.83934 3.54173 5.04767 4.55006 4.54767 5.70006C4.44767 5.9334 4.21434 6.07506 3.97267 6.07506Z" fill="#000013"/>
</svg>