<svg xmlns="http://www.w3.org/2000/svg" width="21" height="20" viewBox="0 0 21 20" fill="none">
    <path fill-rule="evenodd" clip-rule="evenodd" d="M15.0928 12.0154C14.9883 11.9109 14.8466 11.8521 14.6988 11.852C14.3912 11.852 14.1415 12.1015 14.1415 12.4091V14.9627C14.1415 15.2163 13.935 15.4227 13.6815 15.4227H4.78826C4.53469 15.4227 4.32821 15.2163 4.32821 14.9627V5.91675C4.47773 5.95798 4.63259 5.97912 4.78826 5.97939H13.6818C13.9354 5.97939 14.1418 6.18587 14.1418 6.43943V8.12767C14.1418 8.27545 14.2005 8.41717 14.305 8.52166C14.4095 8.62615 14.5512 8.68485 14.699 8.68485C14.8468 8.68485 14.9885 8.62615 15.093 8.52166C15.1975 8.41717 15.2562 8.27545 15.2562 8.12767V6.43928C15.2557 6.02191 15.0897 5.62179 14.7946 5.32667C14.4999 5.03201 14.1006 4.86605 13.6839 4.86504V4.58979C13.6839 3.8072 12.9602 3.2002 12.1095 3.2002H4.78826C3.93796 3.2002 3.21387 3.80682 3.21387 4.58979C3.21387 4.61794 3.21738 4.64326 3.22017 4.66159L3.22382 4.68514L3.22319 4.68749C3.21996 4.69955 3.21387 4.72318 3.21387 4.75187V14.9632C3.21436 15.3806 3.38037 15.7807 3.67549 16.0758C3.97061 16.3709 4.3709 16.5369 4.78826 16.5374H13.6819C14.0993 16.537 14.4995 16.371 14.7947 16.0759C15.0898 15.7808 15.2558 15.3804 15.2562 14.963V12.4094C15.2561 12.2616 15.1973 12.1199 15.0928 12.0154ZM4.44867 4.41403C4.53408 4.35523 4.65577 4.31488 4.78826 4.31488H12.1095C12.2422 4.31488 12.3639 4.35524 12.4492 4.41402C12.5368 4.47433 12.5696 4.54058 12.5696 4.59013V4.86538H4.78826C4.65577 4.86538 4.53408 4.82503 4.44867 4.76623C4.36101 4.70588 4.32821 4.63962 4.32821 4.59013C4.32821 4.54064 4.36101 4.47439 4.44867 4.41403Z" fill="currentColor"/>
    <path fill-rule="evenodd" clip-rule="evenodd" d="M18.442 9.28579C18.3882 9.14843 18.2822 9.03795 18.1472 8.97846L16.1184 8.08731L16.1174 8.08685C15.9823 8.02893 15.8298 8.0267 15.6931 8.08065C15.5565 8.1346 15.4466 8.24037 15.3875 8.37492C15.3285 8.50947 15.3249 8.66191 15.3777 8.79905C15.4305 8.93619 15.5353 9.04693 15.6694 9.10716L16.2907 9.37991C15.5422 9.60349 14.5548 9.87084 13.54 10.0668C12.3581 10.295 11.1537 10.4232 10.2488 10.2812C10.1762 10.2683 10.1018 10.2698 10.0299 10.2859C9.95736 10.302 9.88882 10.3325 9.82827 10.3755C9.76772 10.4185 9.71638 10.4732 9.67727 10.5364C9.63816 10.5995 9.61207 10.6698 9.60054 10.7432C9.58901 10.8166 9.59227 10.8915 9.61012 10.9636C9.62797 11.0357 9.66006 11.1035 9.7045 11.1631C9.74894 11.2226 9.80483 11.2726 9.86889 11.3102C9.93244 11.3475 10.0028 11.3718 10.0758 11.3818C10.3944 11.4321 10.737 11.4541 11.0947 11.4541C13.0735 11.4541 15.5578 10.779 16.9363 10.3509L16.5225 11.2932C16.4931 11.3603 16.4772 11.4324 16.4756 11.5056C16.4741 11.5788 16.487 11.6515 16.5136 11.7197C16.5402 11.7879 16.58 11.8502 16.6306 11.903C16.6813 11.9558 16.7419 11.9981 16.8089 12.0275C16.8759 12.057 16.948 12.0729 17.0212 12.0744C17.0944 12.0759 17.1671 12.063 17.2353 12.0364C17.373 11.9827 17.4838 11.8765 17.5432 11.7412L18.4345 9.71159C18.4932 9.57622 18.4959 9.42315 18.442 9.28579Z" fill="currentColor"/>
</svg>