<svg xmlns="http://www.w3.org/2000/svg" width="16" height="17" viewBox="0 0 16 17" fill="none">
    <path fill-rule="evenodd" clip-rule="evenodd" d="M9.49968 3.51758C9.49968 3.24144 9.72353 3.01758 9.99968 3.01758H13.333C13.6092 3.01758 13.833 3.24144 13.833 3.51758V6.85091C13.833 7.12705 13.6092 7.35091 13.333 7.35091C13.0569 7.35091 12.833 7.12705 12.833 6.85091V4.72468L9.0199 8.5378C8.82463 8.73306 8.50805 8.73306 8.31279 8.5378C8.11753 8.34254 8.11753 8.02595 8.31279 7.83069L12.1259 4.01758H9.99968C9.72353 4.01758 9.49968 3.79372 9.49968 3.51758ZM5.4462 3.68424L6.66647 3.68424C6.94261 3.68424 7.16647 3.9081 7.16647 4.18424C7.16647 4.46039 6.94261 4.68424 6.66647 4.68424H5.46647C5.08486 4.68424 4.82864 4.68463 4.63131 4.70075C4.43978 4.71639 4.34821 4.74433 4.28787 4.77507C4.13107 4.85497 4.00373 4.9823 3.92384 5.1391C3.89309 5.19945 3.86516 5.29102 3.84951 5.48254C3.8334 5.67987 3.83301 5.93609 3.83301 6.31771V11.3844C3.83301 11.766 3.8334 12.0221 3.84951 12.2193C3.86515 12.4106 3.89306 12.5021 3.92384 12.5625C4.00387 12.7196 4.13135 12.8471 4.28787 12.9269C4.34809 12.9576 4.43949 12.9855 4.63067 13.0011C4.82766 13.0172 5.0834 13.0176 5.46428 13.0176H10.5351C10.916 13.0176 11.1715 13.0172 11.3684 13.0011C11.5593 12.9855 11.6507 12.9576 11.7109 12.9269C11.8678 12.8469 11.9958 12.719 12.0757 12.5623C12.1064 12.502 12.1342 12.4107 12.1499 12.2197C12.166 12.0228 12.1663 11.7672 12.1663 11.3863V10.1842C12.1663 9.9081 12.3902 9.68425 12.6663 9.68425C12.9425 9.68425 13.1663 9.9081 13.1663 10.1842V11.4066C13.1663 11.762 13.1664 12.0587 13.1465 12.3012C13.1259 12.5541 13.0811 12.7916 12.9667 13.0163C12.7908 13.3614 12.5098 13.6422 12.1649 13.8179C11.9403 13.9324 11.7028 13.9771 11.4499 13.9978C11.2074 14.0176 10.9107 14.0176 10.5554 14.0176H5.444C5.08861 14.0176 4.79179 14.0176 4.54923 13.9978C4.29625 13.9771 4.05859 13.9324 3.83388 13.8179C3.48863 13.642 3.20845 13.3612 3.03283 13.0165C2.91828 12.7917 2.87353 12.554 2.85284 12.3007C2.833 12.058 2.833 11.7608 2.83301 11.4047V6.29743C2.833 5.94132 2.833 5.64402 2.85283 5.40114C2.87352 5.14785 2.91825 4.90999 3.03283 4.68511C3.2086 4.34015 3.48891 4.05983 3.83388 3.88407C4.05875 3.76949 4.29661 3.72476 4.5499 3.70407C4.79278 3.68423 5.09008 3.68424 5.4462 3.68424Z" fill="#7070FF"/>
</svg>
