<svg xmlns="http://www.w3.org/2000/svg" width="21" height="20" viewBox="0 0 21 20" fill="none">
    <path d="M15.3993 6.15385H15.9762C15.9762 6.00084 15.9154 5.85409 15.8072 5.7459C15.699 5.63771 15.5523 5.57692 15.3993 5.57692V6.15385ZM6.16849 6.15385V5.57692C6.01548 5.57692 5.86874 5.63771 5.76055 5.7459C5.65235 5.85409 5.59157 6.00084 5.59157 6.15385H6.16849ZM14.8223 6.15385V9.23077H15.9762V6.15385H14.8223ZM14.8223 9.23077V15.3846H15.9762V9.23077H14.8223ZM13.8608 16.3462H7.70696V17.5H13.8608V16.3462ZM6.74542 15.3846V6.15385H5.59157V15.3846H6.74542ZM6.16849 6.73077H15.3993V5.57692H6.16849V6.73077ZM6.16849 3.65385H15.3993V2.5H6.16849V3.65385ZM3.66849 6.15385C3.66849 5.4908 3.93189 4.85492 4.40073 4.38608C4.86957 3.91724 5.50545 3.65385 6.16849 3.65385V2.5C5.19943 2.5 4.27006 2.88496 3.58484 3.57019C2.89961 4.25542 2.51465 5.18479 2.51465 6.15385H3.66849ZM6.16849 8.65385C5.50545 8.65385 4.86957 8.39045 4.40073 7.92161C3.93189 7.45277 3.66849 6.81689 3.66849 6.15385H2.51465C2.51465 7.12291 2.89961 8.05228 3.58484 8.7375C4.27006 9.42273 5.19943 9.80769 6.16849 9.80769V8.65385ZM17.8993 6.15385C17.8993 6.81689 17.6359 7.45277 17.167 7.92161C16.6982 8.39045 16.0623 8.65385 15.3993 8.65385V9.80769C16.3683 9.80769 17.2977 9.42273 17.9829 8.7375C18.6682 8.05228 19.0531 7.12291 19.0531 6.15385H17.8993ZM19.0531 6.15385C19.0531 5.18479 18.6682 4.25542 17.9829 3.57019C17.2977 2.88496 16.3683 2.5 15.3993 2.5V3.65385C16.0623 3.65385 16.6982 3.91724 17.167 4.38608C17.6359 4.85492 17.8993 5.4908 17.8993 6.15385H19.0531ZM14.8223 15.3846C14.8223 15.9154 14.3916 16.3462 13.8608 16.3462V17.5C14.4218 17.5 14.9599 17.2771 15.3566 16.8804C15.7533 16.4837 15.9762 15.9457 15.9762 15.3846H14.8223ZM7.70696 16.3462C7.17619 16.3462 6.74542 15.9154 6.74542 15.3846H5.59157C5.59157 15.9457 5.81444 16.4837 6.21115 16.8804C6.60786 17.2771 7.14592 17.5 7.70696 17.5V16.3462ZM11.9146 10.8585C11.9675 10.9151 12.0312 10.9606 12.1019 10.9921C12.1727 11.0237 12.2491 11.0406 12.3266 11.042C12.404 11.0434 12.481 11.0291 12.5528 11.0001C12.6246 10.9711 12.6899 10.9279 12.7447 10.8731C12.7995 10.8183 12.8426 10.7531 12.8717 10.6812C12.9007 10.6094 12.9149 10.5324 12.9136 10.455C12.9122 10.3775 12.8952 10.3011 12.8637 10.2304C12.8322 10.1596 12.7867 10.0959 12.73 10.0431L11.9146 10.8585ZM8.83773 10.0431C8.78104 10.0959 8.73558 10.1596 8.70405 10.2304C8.67252 10.3011 8.65556 10.3775 8.65419 10.455C8.65283 10.5324 8.66708 10.6094 8.69609 10.6812C8.72511 10.7531 8.7683 10.8183 8.82308 10.8731C8.87786 10.9279 8.94312 10.9711 9.01496 11.0001C9.08679 11.0291 9.16374 11.0434 9.2412 11.042C9.31867 11.0406 9.39506 11.0237 9.46583 10.9921C9.5366 10.9606 9.60029 10.9151 9.65311 10.8585L8.83773 10.0431ZM10.207 13.5277C10.207 13.6807 10.2677 13.8274 10.3759 13.9356C10.4841 14.0438 10.6309 14.1046 10.7839 14.1046C10.9369 14.1046 11.0836 14.0438 11.1918 13.9356C11.3 13.8274 11.3608 13.6807 11.3608 13.5277H10.207ZM11.3608 9.68154C11.3608 9.52853 11.3 9.38179 11.1918 9.27359C11.0836 9.1654 10.9369 9.10462 10.7839 9.10462C10.6309 9.10462 10.4841 9.1654 10.3759 9.27359C10.2677 9.38179 10.207 9.52853 10.207 9.68154H11.3608ZM12.73 10.0431L11.7354 9.04846L10.92 9.86385L11.9146 10.8585L12.73 10.0431ZM9.83234 9.04846L8.83773 10.0431L9.65311 10.8585L10.6477 9.86385L9.83234 9.04846ZM11.7354 9.04846C11.483 8.79621 11.1407 8.65452 10.7839 8.65452C10.427 8.65452 10.0848 8.79621 9.83234 9.04846L10.6477 9.86385C10.6656 9.84594 10.6868 9.83173 10.7102 9.82203C10.7335 9.81234 10.7586 9.80735 10.7839 9.80735C10.8092 9.80735 10.8342 9.81234 10.8576 9.82203C10.8809 9.83173 10.9022 9.84594 10.92 9.86385L11.7354 9.04846ZM11.3608 13.5277V9.68154H10.207V13.5277H11.3608Z" fill="currentColor"/>
</svg>