<svg xmlns="http://www.w3.org/2000/svg" width="24" height="25" viewBox="0 0 24 25" fill="none">
    <path fill-rule="evenodd" clip-rule="evenodd" d="M13.1501 2.81689C13.1501 2.40268 13.4858 2.06689 13.9001 2.06689H15.8C16.2142 2.06689 16.55 2.40268 16.55 2.81689C16.55 3.23111 16.2142 3.56689 15.8 3.56689H13.9001C13.4858 3.56689 13.1501 3.23111 13.1501 2.81689ZM11.3249 2.80939C11.3305 3.22356 10.9993 3.56387 10.5852 3.56948C9.92975 3.57836 9.71353 3.62314 9.57791 3.69224C9.36153 3.80249 9.1856 3.97842 9.07534 4.19481C9.00624 4.33042 8.96147 4.54665 8.95259 5.20206C8.94698 5.61623 8.60667 5.94744 8.19249 5.94183C7.77832 5.93621 7.44711 5.59591 7.45273 5.18173C7.46123 4.55455 7.49071 4.0008 7.73883 3.51382C7.9929 3.01519 8.3983 2.60979 8.89693 2.35573C9.3839 2.1076 9.93765 2.07812 10.5648 2.06962C10.979 2.06401 11.3193 2.39521 11.3249 2.80939ZM18.3751 2.80939C18.3807 2.39521 18.721 2.06401 19.1352 2.06962C19.7623 2.07812 20.3161 2.1076 20.8031 2.35573C21.3017 2.60979 21.7071 3.01519 21.9612 3.51382C22.2093 4.00079 22.2388 4.55454 22.2473 5.18172C22.2529 5.5959 21.9217 5.9362 21.5075 5.94181C21.0933 5.94743 20.753 5.61622 20.7474 5.20205C20.7385 4.54664 20.6938 4.33042 20.6247 4.19481C20.5144 3.97842 20.3385 3.80249 20.1221 3.69224C19.9865 3.62314 19.7702 3.57836 19.1148 3.56948C18.7007 3.56387 18.3695 3.22356 18.3751 2.80939ZM21.5 7.76689C21.9142 7.76689 22.25 8.10267 22.25 8.51689V10.4169C22.25 10.8311 21.9142 11.1669 21.5 11.1669C21.0858 11.1669 20.75 10.8311 20.75 10.4169V8.51689C20.75 8.10267 21.0858 7.76689 21.5 7.76689ZM5.50982 7.76689H12.7902C13.2965 7.76688 13.7214 7.76687 14.069 7.79527C14.4322 7.82495 14.7765 7.88933 15.1031 8.05573C15.6017 8.30979 16.0071 8.71519 16.2612 9.21382C16.4276 9.54039 16.4919 9.88469 16.5216 10.2479C16.55 10.5955 16.55 11.0204 16.55 11.5267V18.807C16.55 19.3134 16.55 19.7383 16.5216 20.0859C16.4919 20.4491 16.4276 20.7934 16.2612 21.12C16.0071 21.6186 15.6017 22.024 15.1031 22.2781C14.7765 22.4445 14.4322 22.5088 14.069 22.5385C13.7214 22.5669 13.2965 22.5669 12.7902 22.5669H5.5098C5.00345 22.5669 4.57858 22.5669 4.23101 22.5385C3.8678 22.5088 3.52349 22.4445 3.19693 22.2781C2.6983 22.024 2.2929 21.6186 2.03883 21.12C1.87244 20.7934 1.80805 20.4491 1.77838 20.0859C1.74998 19.7383 1.74999 19.3134 1.75 18.8071V11.5267C1.74999 11.0204 1.74998 10.5955 1.77838 10.2479C1.80805 9.88469 1.87244 9.54039 2.03883 9.21382C2.2929 8.71519 2.6983 8.30979 3.19693 8.05573C3.52349 7.88933 3.8678 7.82495 4.23101 7.79527C4.57858 7.76687 5.00347 7.76688 5.50982 7.76689ZM4.35316 9.29029C4.08271 9.31239 3.95778 9.35154 3.87791 9.39224C3.66153 9.50249 3.4856 9.67842 3.37534 9.89481C3.33465 9.97467 3.29549 10.0996 3.2734 10.3701C3.25058 10.6493 3.25 11.0125 3.25 11.5569V18.7769C3.25 19.3213 3.25058 19.6845 3.2734 19.9637C3.29549 20.2342 3.33465 20.3591 3.37534 20.439C3.4856 20.6554 3.66153 20.8313 3.87791 20.9416C3.95778 20.9822 4.08271 21.0214 4.35316 21.0435C4.63236 21.0663 4.99558 21.0669 5.54 21.0669H12.76C13.3044 21.0669 13.6676 21.0663 13.9468 21.0435C14.2173 21.0214 14.3422 20.9822 14.4221 20.9416C14.6385 20.8313 14.8144 20.6554 14.9247 20.439C14.9654 20.3591 15.0045 20.2342 15.0266 19.9637C15.0494 19.6845 15.05 19.3213 15.05 18.7769V11.5569C15.05 11.0125 15.0494 10.6493 15.0266 10.3701C15.0045 10.0996 14.9654 9.97467 14.9247 9.89481C14.8144 9.67842 14.6385 9.50249 14.4221 9.39224C14.3422 9.35154 14.2173 9.31239 13.9468 9.29029C13.6676 9.26748 13.3044 9.26689 12.76 9.26689H5.54C4.99558 9.26689 4.63236 9.26748 4.35316 9.29029ZM21.5075 12.992C21.9217 12.9976 22.2529 13.3379 22.2473 13.752C22.2388 14.3792 22.2093 14.933 21.9612 15.42C21.7071 15.9186 21.3017 16.324 20.8031 16.5781C20.3161 16.8262 19.7623 16.8557 19.1352 16.8642C18.721 16.8698 18.3807 16.5386 18.3751 16.1244C18.3695 15.7102 18.7007 15.3699 19.1148 15.3643C19.7702 15.3554 19.9865 15.3106 20.1221 15.2416C20.3385 15.1313 20.5144 14.9554 20.6247 14.739C20.6938 14.6034 20.7385 14.3871 20.7474 13.7317C20.753 13.3175 21.0933 12.9863 21.5075 12.992Z" fill="currentColor"/>
</svg>