<svg xmlns="http://www.w3.org/2000/svg" width="19" height="18" viewBox="0 0 19 18" fill="none">
    <path d="M12.7215 14.0527L12.7215 11.9474H13.5635V9.84216H14.4057V8.57909H16.932V7.7369H17.7742V6.47383H16.932V5.63165L11.0372 5.63165V4.7896H11.8794V2.26318L9.353 2.26318V3.10537L7.66877 3.10537V3.94742H6.82672V4.7896H5.14249V5.63165H4.30044V6.47383H2.61621L2.61621 12.3686H3.45826L3.45826 13.2106H4.30044V14.0527H5.98467V14.8949H11.8794V14.0527H12.7215Z" fill="#AD0038"/>
    <path d="M4.29215 7.31346H3.45215V6.47346H4.29215V7.31346ZM5.97965 6.47346V5.63346H4.29215V6.47346H5.97965ZM6.81965 4.78596H5.97965V5.62596H6.81965V4.78596ZM8.50715 4.78596V3.94596H6.81965V4.78596H8.50715ZM10.1946 3.94596V5.63346H11.0346V3.10596H8.50715V3.94596H10.1946ZM8.51465 6.47346V7.31346H16.0971V6.47346H10.2096V5.63346H9.36965V6.47346H8.51465ZM11.0421 10.681H9.35465V11.521H11.8746V12.781H12.7146V10.6735H11.0346L11.0421 10.681ZM10.2021 12.7885H8.51465V13.6285H11.0421V14.8885H11.8821V12.7885H10.1946H10.2021ZM5.14715 14.896V15.736H11.0421V14.896H5.14715ZM3.46715 14.056V14.896H5.15465V14.056H3.46715ZM2.61965 13.216V14.056H3.45965V13.216H2.61965ZM10.2021 8.58096V9.42096H12.7296V10.681H13.5696V9.42096H16.0971V8.58096H10.2021ZM16.0971 7.32096V8.58096H16.9371V7.32096H16.0971ZM2.60465 8.16096H3.44465V7.32096H1.76465V13.216H2.60465V8.16096Z" fill="#121212"/>
    <path d="M8.51121 7.3133V6.4733H9.35121V5.6333H10.1987V3.9458H8.51121V4.7858H6.82371V5.6333H5.98371V6.4733H4.30371V7.3133H3.45621V8.1533H2.61621V13.2083H3.45621V14.0483H5.14371V14.8958H11.0387V13.6283H8.51121V12.7883H11.8787V11.5283H9.35121V10.6808H12.7187V9.4208H10.1987V8.5808H16.0862V7.3133H8.51121Z" fill="#FFFDF1"/>
</svg>