<svg width="60" height="60" viewBox="0 0 60 60" fill="none" xmlns="http://www.w3.org/2000/svg">
    <g clip-path="url(#clip0_925_56724)">
        <path fill-rule="evenodd" clip-rule="evenodd" d="M11.8346 7.35139L15.5635 7.15596L15.3465 3.01435L26.5304 2.42822L30.2593 2.2328L41.4433 1.64667L41.4433 1.64667L41.6604 5.78828L45.3893 5.59286L45.6064 9.73609L49.3339 9.54074L49.551 13.6832L53.2799 13.4878L53.714 21.772L57.4416 21.5766L57.4416 21.5774L58.8528 48.5028L59.0698 52.6453L55.3423 52.8406L55.5595 56.9837L51.8313 57.1791L51.6141 53.036L47.8859 53.2314L47.6688 49.089L43.9399 49.2844L44.157 53.4268L40.4294 53.6222L40.6465 57.7645L36.9183 57.9599L36.7012 53.8175L32.973 54.0129L32.7559 49.8706L29.027 50.066L29.2441 54.2083L25.5166 54.4037L25.7337 58.546L22.0054 58.7414L21.7883 54.599L18.0602 54.7944L17.8431 50.6521L17.8431 50.6521L14.1142 50.8475L14.3313 54.9906L10.6038 55.186L10.8208 59.3283L7.09265 59.5237L6.87556 55.3813L3.14731 55.5767L2.93018 51.4336L1.51908 24.5081L5.24732 24.3128L4.81313 16.0278L8.54129 15.8324L8.32419 11.69L12.0518 11.4946L11.8346 7.35139Z" fill="#6AE6FF"/>
        <path fill-rule="evenodd" clip-rule="evenodd" d="M15.5663 7.15686L15.567 7.15682L17.4301 7.05918L19.2938 6.96151L19.4023 9.03236L17.5386 9.13003L17.6472 11.2016L15.7834 11.2993L15.5663 7.15686ZM15.7833 11.2992L12.0545 11.4947L12.2715 15.6364L16.0004 15.4409L15.7833 11.2992ZM8.54407 15.8325L12.2716 15.6371L12.4886 19.7795L8.76117 19.9748L8.54407 15.8325ZM5.25002 24.3128L8.97818 24.1174L9.19524 28.2592L5.46708 28.4546L5.25002 24.3128ZM37.9356 5.98453L39.7993 5.88686L41.6631 5.78918L41.6631 5.78918L41.8802 9.9316L40.0164 10.0293L39.9079 7.95771L38.0441 8.05538L37.9356 5.98453ZM41.8809 9.93152L45.6091 9.73613L45.8261 13.8778L49.5544 13.6825L49.9885 21.9666L46.2603 22.162L45.8261 13.8779L42.098 14.0733L41.8809 9.93152ZM53.717 21.7764L49.9888 21.9717L50.9656 40.6095L49.1012 40.7072L49.3185 44.8545L47.4553 44.9521L47.6721 49.089L49.5353 48.9914L51.3994 48.8937L51.3997 48.8937L51.6169 53.0366L55.3451 52.8412L53.717 21.7764ZM10.3881 51.0436L6.65843 51.239L6.87549 55.3808L10.6052 55.1853L10.3881 51.0436ZM41.6446 41.098L43.5084 41.0003L43.7254 45.1427L43.7262 45.1426L43.9432 49.2844L43.9425 49.2844L43.9425 49.2845L42.0787 49.3822L42.0787 49.3821L40.2158 49.4797L39.9987 45.338L41.8617 45.2404L41.6446 41.098ZM36.4874 49.6752L40.2138 49.4799L40.4308 53.6217L36.7045 53.817L36.4874 49.6752ZM13.8998 46.7058L10.1723 46.9011L10.3893 51.0414L14.1168 50.8461L13.8998 46.7058ZM13.6834 42.5634L17.4123 42.3679L17.6292 46.5058L13.9002 46.7012L13.6834 42.5634ZM25.3022 50.2619L21.5741 50.4573L21.791 54.5967L25.5191 54.4013L25.3022 50.2619ZM28.5963 41.7818L32.3252 41.5864L32.542 45.724L28.8131 45.9194L28.5963 41.7818ZM32.541 45.7288L36.269 45.5335L36.4861 49.6752L32.7581 49.8706L32.541 45.7288ZM28.8127 45.9242L25.0851 46.1196L25.3019 50.2568L29.0295 50.0615L28.8127 45.9242Z" fill="#00A5C6"/>
        <path fill-rule="evenodd" clip-rule="evenodd" d="M41.4432 1.64664L15.3464 3.01431L15.5635 7.15597L41.6603 5.78829L41.4432 1.64664ZM45.3886 5.59371L41.6603 5.7891L41.8774 9.93148L45.6057 9.73609L45.8227 13.8778L49.5502 13.6824L49.3332 9.54074L45.6057 9.73609L45.3886 5.59371ZM1.51834 24.5081L5.24663 24.3127L6.87482 55.3806L3.14654 55.576L1.51834 24.5081ZM6.87551 55.3814L10.6037 55.186L10.8208 59.3284L7.0926 59.5237L6.87551 55.3814ZM21.5706 50.4573L17.8431 50.6526L18.0602 54.7952L21.7877 54.5999L21.5706 50.4573ZM25.2995 50.2619L29.0269 50.0665L28.8099 45.9241L32.5388 45.7287L32.7559 49.8711L36.4835 49.6757L36.7005 53.8175L32.9729 54.0129L32.7559 49.8711L29.027 50.0665L29.2441 54.2091L25.5166 54.4044L25.7337 58.546L22.0054 58.7414L21.7883 54.5998L25.5166 54.4044L25.2995 50.2619ZM40.4294 53.6229L36.7012 53.8183L36.9183 57.9599L40.6465 57.7645L40.4294 53.6229ZM40.2124 49.4803L43.9399 49.285L44.1569 53.4268L40.4294 53.6221L40.2124 49.4803ZM51.3963 48.8942L47.6688 49.0895L47.8859 53.2321L51.6134 53.0368L51.3963 48.8942ZM51.6141 53.0367L55.3423 52.8413L55.5594 56.9837L51.8312 57.1791L51.6141 53.0367ZM57.4416 21.5773L53.714 21.7727L55.3422 52.8406L59.0698 52.6452L57.4416 21.5773ZM11.8353 7.35217L15.5635 7.15678L15.7805 11.2992L12.0524 11.4946L11.8353 7.35217ZM12.0517 11.4946L8.32414 11.6899L8.5412 15.8317L12.2688 15.6363L12.0517 11.4946ZM4.81308 16.0278L8.54124 15.8324L8.97539 24.1165L5.24723 24.3119L4.81308 16.0278ZM49.5502 13.6832L53.2799 13.4877L53.714 21.7719L49.9844 21.9674L49.5502 13.6832ZM14.1142 50.8481L10.3866 51.0434L10.6036 55.1852L14.3312 54.9899L14.1142 50.8481ZM13.8977 46.7057L17.6266 46.5102L17.8437 50.652L14.1148 50.8475L13.8977 46.7057ZM43.7227 45.1426L47.4517 44.9472L47.6688 49.089L43.9398 49.2844L43.7227 45.1426Z" fill="#012A32"/>
        <path fill-rule="evenodd" clip-rule="evenodd" d="M18.0783 19.4863L25.5348 19.0955L25.6433 21.1663L27.5071 21.0687L28.0499 31.4245L26.186 31.5222L26.2946 33.5938L18.8382 33.9846L18.7296 31.913L16.8659 32.0106L16.3231 21.6548L18.1869 21.5571L18.0783 19.4863Z" fill="white"/>
        <path d="M27.7243 25.2118L22.1323 25.5049L22.4579 31.7181L28.0499 31.425L27.7243 25.2118Z" fill="#153EB5"/>
        <path d="M27.7248 25.2114L23.9966 25.4067L24.2137 29.5499L27.9419 29.3545L27.7248 25.2114Z" fill="#153A96"/>
        <path fill-rule="evenodd" clip-rule="evenodd" d="M36.9526 18.4971L44.409 18.1063L44.5176 20.1771L46.3814 20.0794L46.9241 30.4352L45.0603 30.5329L45.1689 32.6045L37.7124 32.9953L37.6039 30.9237L35.7401 31.0214L35.1974 20.6655L37.0611 20.5679L36.9526 18.4971Z" fill="white"/>
        <path d="M46.5986 24.2226L41.0066 24.5156L41.3322 30.7288L46.9242 30.4358L46.5986 24.2226Z" fill="#153EB5"/>
        <path d="M46.599 24.2221L42.8708 24.4175L43.088 28.5606L46.8162 28.3652L46.599 24.2221Z" fill="#153A96"/>
    </g>
    <defs>
        <clipPath id="clip0_925_56724">
            <rect width="56" height="56" fill="white" transform="translate(0.432861 3.7959) rotate(-3)"/>
        </clipPath>
    </defs>
</svg>